REM DIRINDEX 1\2,1\3,1\4,1\6,1\5\7,1\5\8
REM DIRNAME cjc114,folder01,folder02,folder03,folder04,folder05,folder06,folder07
TITLE ""
FILE "DB4500_5th_1A_21.mp3" MP3
  TRACK 01 AUDIO
    TITLE "0:"
    INDEX 01 00:00:00
  TRACK 02 AUDIO
    TITLE "2:cjc114_0615"
    INDEX 01 00:00:05
  TRACK 03 AUDIO
    TITLE "0:"
    INDEX 01 00:01:17
  TRACK 04 AUDIO
    TITLE "3:cjc114_0616"
    INDEX 01 00:01:42
  TRACK 05 AUDIO
    TITLE "0:"
    INDEX 01 00:02:45
  TRACK 06 AUDIO
    TITLE "4:cjc114_0617"
    INDEX 01 00:02:69
  TRACK 07 AUDIO
    TITLE "0:"
    INDEX 01 00:06:49
  TRACK 08 AUDIO
    TITLE "2:cjc114_0618"
    INDEX 01 00:07:25
  TRACK 09 AUDIO
    TITLE "0:"
    INDEX 01 00:08:36
  TRACK 10 AUDIO
    TITLE "3:cjc114_0619"
    INDEX 01 00:08:62
  TRACK 11 AUDIO
    TITLE "0:"
    INDEX 01 00:09:73
  TRACK 12 AUDIO
    TITLE "4:cjc114_0620"
    INDEX 01 00:10:19
  TRACK 13 AUDIO
    TITLE "0:"
    INDEX 01 00:13:28
  TRACK 14 AUDIO
    TITLE "2:cjc114_0621"
    INDEX 01 00:14:02
  TRACK 15 AUDIO
    TITLE "0:"
    INDEX 01 00:15:21
  TRACK 16 AUDIO
    TITLE "3:cjc114_0622"
    INDEX 01 00:15:44
  TRACK 17 AUDIO
    TITLE "0:"
    INDEX 01 00:17:16
  TRACK 18 AUDIO
    TITLE "4:cjc114_0623"
    INDEX 01 00:17:41
  TRACK 19 AUDIO
    TITLE "0:"
    INDEX 01 00:22:07
  TRACK 20 AUDIO
    TITLE "4:cjc114_0624"
    INDEX 01 00:22:60
  TRACK 21 AUDIO
    TITLE "0:"
    INDEX 01 00:25:01
  TRACK 22 AUDIO
    TITLE "2:cjc114_0625"
    INDEX 01 00:25:48
  TRACK 23 AUDIO
    TITLE "0:"
    INDEX 01 00:26:54
  TRACK 24 AUDIO
    TITLE "3:cjc114_0626"
    INDEX 01 00:26:73
  TRACK 25 AUDIO
    TITLE "0:"
    INDEX 01 00:28:47
  TRACK 26 AUDIO
    TITLE "4:cjc114_0627"
    INDEX 01 00:28:70
  TRACK 27 AUDIO
    TITLE "0:"
    INDEX 01 00:31:41
  TRACK 28 AUDIO
    TITLE "4:cjc114_0628"
    INDEX 01 00:32:17
  TRACK 29 AUDIO
    TITLE "0:"
    INDEX 01 00:34:47
  TRACK 30 AUDIO
    TITLE "2:cjc114_0629"
    INDEX 01 00:35:21
  TRACK 31 AUDIO
    TITLE "0:"
    INDEX 01 00:36:25
  TRACK 32 AUDIO
    TITLE "3:cjc114_0630"
    INDEX 01 00:36:48
  TRACK 33 AUDIO
    TITLE "0:"
    INDEX 01 00:38:04
  TRACK 34 AUDIO
    TITLE "4:cjc114_0631"
    INDEX 01 00:38:30
  TRACK 35 AUDIO
    TITLE "0:"
    INDEX 01 00:41:63
  TRACK 36 AUDIO
    TITLE "4:cjc114_0632"
    INDEX 01 00:42:37
  TRACK 37 AUDIO
    TITLE "0:"
    INDEX 01 00:46:07
  TRACK 38 AUDIO
    TITLE "2:cjc114_0633"
    INDEX 01 00:46:60
  TRACK 39 AUDIO
    TITLE "0:"
    INDEX 01 00:48:00
  TRACK 40 AUDIO
    TITLE "3:cjc114_0634"
    INDEX 01 00:48:24
  TRACK 41 AUDIO
    TITLE "0:"
    INDEX 01 00:50:31
  TRACK 42 AUDIO
    TITLE "4:cjc114_0635"
    INDEX 01 00:50:52
  TRACK 43 AUDIO
    TITLE "0:"
    INDEX 01 00:53:70
  TRACK 44 AUDIO
    TITLE "2:cjc114_0636"
    INDEX 01 00:54:42
  TRACK 45 AUDIO
    TITLE "0:"
    INDEX 01 00:55:48
  TRACK 46 AUDIO
    TITLE "3:cjc114_0637"
    INDEX 01 00:55:71
  TRACK 47 AUDIO
    TITLE "0:"
    INDEX 01 00:58:17
  TRACK 48 AUDIO
    TITLE "4:cjc114_0638"
    INDEX 01 00:58:42
  TRACK 49 AUDIO
    TITLE "0:"
    INDEX 01 01:02:03
  TRACK 50 AUDIO
    TITLE "2:cjc114_0639"
    INDEX 01 01:02:50
  TRACK 51 AUDIO
    TITLE "0:"
    INDEX 01 01:03:57
  TRACK 52 AUDIO
    TITLE "3:cjc114_0640"
    INDEX 01 01:04:03
  TRACK 53 AUDIO
    TITLE "0:"
    INDEX 01 01:05:64
  TRACK 54 AUDIO
    TITLE "4:cjc114_0641"
    INDEX 01 01:06:10
  TRACK 55 AUDIO
    TITLE "0:"
    INDEX 01 01:09:09
  TRACK 56 AUDIO
    TITLE "2:cjc114_0642"
    INDEX 01 01:09:48
  TRACK 57 AUDIO
    TITLE "0:"
    INDEX 01 01:10:57
  TRACK 58 AUDIO
    TITLE "3:cjc114_0643"
    INDEX 01 01:11:07
  TRACK 59 AUDIO
    TITLE "0:"
    INDEX 01 01:12:50
  TRACK 60 AUDIO
    TITLE "4:cjc114_0644"
    INDEX 01 01:12:71
  TRACK 61 AUDIO
    TITLE "0:"
    INDEX 01 01:17:61
  TRACK 62 AUDIO
    TITLE "2:cjc114_0645"
    INDEX 01 01:18:35
  TRACK 63 AUDIO
    TITLE "0:"
    INDEX 01 01:19:36
  TRACK 64 AUDIO
    TITLE "3:cjc114_0646"
    INDEX 01 01:19:62
  TRACK 65 AUDIO
    TITLE "0:"
    INDEX 01 01:22:09
  TRACK 66 AUDIO
    TITLE "4:cjc114_0647"
    INDEX 01 01:22:35
  TRACK 67 AUDIO
    TITLE "0:"
    INDEX 01 01:25:02
  TRACK 68 AUDIO
    TITLE "4:cjc114_0648"
    INDEX 01 01:25:51
  TRACK 69 AUDIO
    TITLE "0:"
    INDEX 01 01:29:52
